<?xml version="1.0" encoding="UTF-8" standalone="no"?>
<!-- Created with Inkscape (http://www.inkscape.org/) -->

<svg
   version="1.1"
   id="svg950"
   width="880"
   height="880"
   viewBox="0 0 880 880"
   sodipodi:docname="golden-sheriff-badge [Converted].svg"
   inkscape:version="1.2 (dc2aedaf03, 2022-05-15)"
   xmlns:inkscape="http://www.inkscape.org/namespaces/inkscape"
   xmlns:sodipodi="http://sodipodi.sourceforge.net/DTD/sodipodi-0.dtd"
   xmlns="http://www.w3.org/2000/svg"
   xmlns:svg="http://www.w3.org/2000/svg">
  <defs
     id="defs954">
    <clipPath
       clipPathUnits="userSpaceOnUse"
       id="clipPath976">
      <path
         d="M 0,660 H 660 V 0 H 0 Z"
         id="path974" />
    </clipPath>
  </defs>
  <sodipodi:namedview
     id="namedview952"
     pagecolor="#ffffff"
     bordercolor="#000000"
     borderopacity="0.25"
     inkscape:showpageshadow="2"
     inkscape:pageopacity="0.0"
     inkscape:pagecheckerboard="0"
     inkscape:deskcolor="#d1d1d1"
     showgrid="false"
     inkscape:zoom="0.95113636"
     inkscape:cx="440.52569"
     inkscape:cy="440.52569"
     inkscape:window-width="1920"
     inkscape:window-height="1017"
     inkscape:window-x="-8"
     inkscape:window-y="-8"
     inkscape:window-maximized="1"
     inkscape:current-layer="g958">
    <inkscape:page
       x="0"
       y="0"
       id="page956"
       width="880"
       height="880" />
  </sodipodi:namedview>
  <g
     id="g958"
     inkscape:groupmode="layer"
     inkscape:label="Page 1"
     transform="matrix(1.3333333,0,0,-1.3333333,0,880)">
    <path
       d="M 92.056,102.978 H 617.421 V 628.343 H 92.056 Z"
       style="fill:#1c1a19;fill-opacity:1;fill-rule:evenodd;stroke:none"
       id="path960" />
    <g
       id="g962"
       transform="translate(354.7383,572.2651)">
      <path
         d="m 0,0 59.255,-103.972 119.671,0.67 -60.415,-103.303 60.415,-103.303 -119.671,0.67 L 0,-413.209 l -59.255,103.971 -119.67,-0.67 60.415,103.303 -60.415,103.303 119.67,-0.67 z"
         style="fill:#fab40a;fill-opacity:1;fill-rule:evenodd;stroke:none"
         id="path964" />
    </g>
    <g
       id="g966"
       transform="translate(427.9355,468.3706)">
      <path
         d="M 0,0 -124.268,-219.703 -96.77,-267.953 54.965,0.308 Z m -51.895,66.517 35.633,-62.524 -118.413,-209.348 -71.222,-0.399 z"
         style="fill:#f9de1c;fill-opacity:1;fill-rule:evenodd;stroke:none"
         id="path968" />
    </g>
    <g
       id="g970">
      <g
         id="g972"
         clip-path="url(#clipPath976)">
        <g
           id="g978"
           transform="translate(452.8447,376.4893)">
          <path
             d="m 0,0 40.452,69.167 -80.13,-0.448 C -17.997,52.766 -3.073,28.165 0,0 M -39.678,-90.377 40.452,-90.826 0,-21.658 c -3.074,-28.165 -17.994,-52.768 -39.678,-68.719 m -98.09,-10.852 39.662,-69.593 39.662,69.593 c -12.138,-5.334 -25.554,-8.3 -39.662,-8.3 -14.109,0 -27.525,2.964 -39.662,8.3 m -58.445,79.571 -40.452,-69.168 80.129,0.449 c -21.68,15.953 -36.603,40.554 -39.677,68.719 m 39.677,90.377 -80.129,0.448 L -196.213,0 c 3.075,28.164 17.995,52.767 39.677,68.719 m 58.43,80.446 -39.662,-69.594 c 12.139,5.334 25.553,8.3 39.662,8.3 14.11,0 27.524,-2.965 39.662,-8.3 z"
             style="fill:#cc801a;fill-opacity:1;fill-rule:evenodd;stroke:none"
             id="path980" />
        </g>
        <g
           id="g982"
           transform="translate(455.4033,390.8955)">
          <path
             d="M 0,0 29.034,49.647 -28.504,49.324 C -14.596,35.866 -4.701,18.79 0,0 M -28.502,-99.795 29.034,-100.117 0,-50.472 c -4.701,-18.789 -14.595,-35.865 -28.502,-49.323 m -100.636,-25.244 28.473,-49.961 28.474,49.962 c -9.236,-2.631 -18.807,-3.963 -28.474,-3.963 -9.667,0 -19.237,1.331 -28.473,3.962 m -72.192,74.567 -29.035,-49.645 57.539,0.322 c -13.908,13.458 -23.803,30.534 -28.504,49.323 m 28.502,99.796 -57.537,0.323 L -201.33,0 c 4.701,18.79 14.595,35.867 28.502,49.324 m 72.163,75.204 -28.474,-49.961 c 9.236,2.631 18.807,3.963 28.474,3.963 9.667,0 19.238,-1.331 28.474,-3.962 z"
             style="fill:#df8c16;fill-opacity:1;fill-rule:evenodd;stroke:none"
             id="path984" />
        </g>
        <g
           id="g986"
           transform="translate(354.7393,547.2988)">
          <path
             d="M 0,0 C 13.75,0 24.966,11.215 24.966,24.966 24.966,38.717 13.75,49.932 0,49.932 -13.752,49.932 -24.967,38.717 -24.967,24.966 -24.967,11.215 -13.752,0 0,0"
             style="fill:#f39c0f;fill-opacity:1;fill-rule:evenodd;stroke:none"
             id="path988" />
        </g>
        <g
           id="g990"
           transform="translate(354.7393,547.2988)">
          <path
             d="M 0,0 C 13.75,0 24.966,11.215 24.966,24.966 24.966,38.717 13.75,49.932 0,49.932 -13.752,49.932 -24.967,38.717 -24.967,24.966 -24.967,11.215 -13.752,0 0,0"
             style="fill:#fab40a;fill-opacity:1;fill-rule:evenodd;stroke:none"
             id="path992" />
        </g>
        <g
           id="g994"
           transform="translate(352.416,595.0684)">
          <path
             d="M 0,0 C 7.912,0 12.75,-6.414 10.804,-14.325 8.86,-22.238 0.87,-28.651 -7.042,-28.651 c -7.911,0 -12.749,6.413 -10.805,14.326 C -15.902,-6.414 -7.912,0 0,0"
             style="fill:#f9de1c;fill-opacity:1;fill-rule:evenodd;stroke:none"
             id="path996" />
        </g>
        <g
           id="g998"
           transform="translate(373.4648,588.7754)">
          <path
             d="m 0,0 c 3.883,-4.401 6.24,-10.18 6.24,-16.51 0,-13.789 -11.178,-24.967 -24.967,-24.967 -10.224,0 -19.011,6.146 -22.872,14.945 4.576,-5.184 11.268,-8.455 18.726,-8.455 13.79,0 24.967,11.177 24.967,24.966 C 2.094,-6.457 1.345,-3.067 0,0"
             style="fill:#f39c0f;fill-opacity:1;fill-rule:evenodd;stroke:none"
             id="path1000" />
        </g>
        <g
           id="g1002"
           transform="translate(175.8135,443.9961)">
          <path
             d="M 0,0 C 13.751,0 24.967,11.215 24.967,24.967 24.967,38.718 13.751,49.933 0,49.933 -13.751,49.933 -24.966,38.718 -24.966,24.967 -24.966,11.215 -13.751,0 0,0"
             style="fill:#f39c0f;fill-opacity:1;fill-rule:evenodd;stroke:none"
             id="path1004" />
        </g>
        <g
           id="g1006"
           transform="translate(175.8135,443.9961)">
          <path
             d="M 0,0 C 13.751,0 24.967,11.215 24.967,24.967 24.967,38.718 13.751,49.933 0,49.933 -13.751,49.933 -24.966,38.718 -24.966,24.967 -24.966,11.215 -13.751,0 0,0"
             style="fill:#fab40a;fill-opacity:1;fill-rule:evenodd;stroke:none"
             id="path1008" />
        </g>
        <g
           id="g1010"
           transform="translate(173.4897,491.7661)">
          <path
             d="m 0,0 c 7.912,0 12.75,-6.414 10.805,-14.326 -1.944,-7.912 -9.933,-14.325 -17.846,-14.325 -7.912,0 -12.749,6.413 -10.805,14.325 C -15.901,-6.414 -7.911,0 0,0"
             style="fill:#f9de1c;fill-opacity:1;fill-rule:evenodd;stroke:none"
             id="path1012" />
        </g>
        <g
           id="g1014"
           transform="translate(194.5391,485.4731)">
          <path
             d="m 0,0 c 3.883,-4.401 6.241,-10.18 6.241,-16.51 0,-13.789 -11.178,-24.967 -24.967,-24.967 -10.224,0 -19.011,6.146 -22.872,14.945 4.575,-5.184 11.268,-8.456 18.726,-8.456 13.789,0 24.966,11.178 24.966,24.967 C 2.094,-6.457 1.346,-3.067 0,0"
             style="fill:#f39c0f;fill-opacity:1;fill-rule:evenodd;stroke:none"
             id="path1016" />
        </g>
        <g
           id="g1018"
           transform="translate(533.6641,443.9961)">
          <path
             d="M 0,0 C 13.75,0 24.967,11.215 24.967,24.967 24.967,38.718 13.75,49.933 0,49.933 -13.751,49.933 -24.967,38.718 -24.967,24.967 -24.967,11.215 -13.751,0 0,0"
             style="fill:#f39c0f;fill-opacity:1;fill-rule:evenodd;stroke:none"
             id="path1020" />
        </g>
        <g
           id="g1022"
           transform="translate(533.6641,443.9961)">
          <path
             d="M 0,0 C 13.75,0 24.967,11.215 24.967,24.967 24.967,38.718 13.75,49.933 0,49.933 -13.751,49.933 -24.967,38.718 -24.967,24.967 -24.967,11.215 -13.751,0 0,0"
             style="fill:#fab40a;fill-opacity:1;fill-rule:evenodd;stroke:none"
             id="path1024" />
        </g>
        <g
           id="g1026"
           transform="translate(531.3398,491.7661)">
          <path
             d="M 0,0 C 7.912,0 12.75,-6.414 10.806,-14.326 8.861,-22.238 0.871,-28.651 -7.04,-28.651 c -7.912,0 -12.75,6.413 -10.806,14.325 C -15.9,-6.414 -7.911,0 0,0"
             style="fill:#f9de1c;fill-opacity:1;fill-rule:evenodd;stroke:none"
             id="path1028" />
        </g>
        <g
           id="g1030"
           transform="translate(552.3896,485.4731)">
          <path
             d="m 0,0 c 3.883,-4.401 6.241,-10.18 6.241,-16.51 0,-13.789 -11.178,-24.967 -24.967,-24.967 -10.224,0 -19.012,6.146 -22.872,14.945 4.575,-5.184 11.268,-8.456 18.726,-8.456 13.788,0 24.967,11.178 24.967,24.967 C 2.095,-6.457 1.346,-3.067 0,0"
             style="fill:#f39c0f;fill-opacity:1;fill-rule:evenodd;stroke:none"
             id="path1032" />
        </g>
        <g
           id="g1034"
           transform="translate(533.6641,237.3916)">
          <path
             d="M 0,0 C 13.75,0 24.967,11.216 24.967,24.966 24.967,38.717 13.75,49.933 0,49.933 -13.751,49.933 -24.967,38.717 -24.967,24.966 -24.967,11.216 -13.751,0 0,0"
             style="fill:#f39c0f;fill-opacity:1;fill-rule:evenodd;stroke:none"
             id="path1036" />
        </g>
        <g
           id="g1038"
           transform="translate(533.6641,237.3916)">
          <path
             d="M 0,0 C 13.75,0 24.967,11.216 24.967,24.966 24.967,38.717 13.75,49.933 0,49.933 -13.751,49.933 -24.967,38.717 -24.967,24.966 -24.967,11.216 -13.751,0 0,0"
             style="fill:#fab40a;fill-opacity:1;fill-rule:evenodd;stroke:none"
             id="path1040" />
        </g>
        <g
           id="g1042"
           transform="translate(531.3398,285.1611)">
          <path
             d="M 0,0 C 7.912,0 12.75,-6.414 10.806,-14.326 8.861,-22.238 0.871,-28.651 -7.04,-28.651 c -7.912,0 -12.75,6.413 -10.806,14.325 C -15.9,-6.414 -7.911,0 0,0"
             style="fill:#f9de1c;fill-opacity:1;fill-rule:evenodd;stroke:none"
             id="path1044" />
        </g>
        <g
           id="g1046"
           transform="translate(552.3896,278.8682)">
          <path
             d="m 0,0 c 3.883,-4.401 6.241,-10.181 6.241,-16.511 0,-13.788 -11.178,-24.966 -24.967,-24.966 -10.224,0 -19.012,6.146 -22.872,14.946 4.575,-5.185 11.268,-8.457 18.726,-8.457 13.788,0 24.967,11.178 24.967,24.966 C 2.095,-6.457 1.346,-3.067 0,0"
             style="fill:#f39c0f;fill-opacity:1;fill-rule:evenodd;stroke:none"
             id="path1048" />
        </g>
        <g
           id="g1050"
           transform="translate(354.7393,134.0889)">
          <path
             d="M 0,0 C 13.75,0 24.966,11.216 24.966,24.967 24.966,38.718 13.75,49.934 0,49.934 -13.752,49.934 -24.967,38.718 -24.967,24.967 -24.967,11.216 -13.752,0 0,0"
             style="fill:#f39c0f;fill-opacity:1;fill-rule:evenodd;stroke:none"
             id="path1052" />
        </g>
        <g
           id="g1054"
           transform="translate(354.7393,134.0889)">
          <path
             d="M 0,0 C 13.75,0 24.966,11.216 24.966,24.967 24.966,38.718 13.75,49.934 0,49.934 -13.752,49.934 -24.967,38.718 -24.967,24.967 -24.967,11.216 -13.752,0 0,0"
             style="fill:#fab40a;fill-opacity:1;fill-rule:evenodd;stroke:none"
             id="path1056" />
        </g>
        <g
           id="g1058"
           transform="translate(352.416,181.8584)">
          <path
             d="M 0,0 C 7.912,0 12.75,-6.413 10.804,-14.326 8.86,-22.237 0.87,-28.651 -7.042,-28.651 c -7.911,0 -12.749,6.414 -10.805,14.325 C -15.902,-6.413 -7.912,0 0,0"
             style="fill:#f9de1c;fill-opacity:1;fill-rule:evenodd;stroke:none"
             id="path1060" />
        </g>
        <g
           id="g1062"
           transform="translate(373.4648,175.5654)">
          <path
             d="m 0,0 c 3.883,-4.4 6.24,-10.18 6.24,-16.51 0,-13.789 -11.178,-24.967 -24.967,-24.967 -10.224,0 -19.011,6.147 -22.872,14.946 4.576,-5.185 11.268,-8.456 18.726,-8.456 13.79,0 24.967,11.177 24.967,24.966 C 2.094,-6.457 1.345,-3.067 0,0"
             style="fill:#f39c0f;fill-opacity:1;fill-rule:evenodd;stroke:none"
             id="path1064" />
        </g>
        <g
           id="g1066"
           transform="translate(175.8135,237.3916)">
          <path
             d="M 0,0 C 13.751,0 24.967,11.216 24.967,24.966 24.967,38.717 13.751,49.933 0,49.933 -13.751,49.933 -24.966,38.717 -24.966,24.966 -24.966,11.216 -13.751,0 0,0"
             style="fill:#f39c0f;fill-opacity:1;fill-rule:evenodd;stroke:none"
             id="path1068" />
        </g>
        <g
           id="g1070"
           transform="translate(175.8135,237.3916)">
          <path
             d="M 0,0 C 13.751,0 24.967,11.216 24.967,24.966 24.967,38.717 13.751,49.933 0,49.933 -13.751,49.933 -24.966,38.717 -24.966,24.966 -24.966,11.216 -13.751,0 0,0"
             style="fill:#fab40a;fill-opacity:1;fill-rule:evenodd;stroke:none"
             id="path1072" />
        </g>
        <g
           id="g1074"
           transform="translate(173.4897,285.1611)">
          <path
             d="m 0,0 c 7.912,0 12.75,-6.414 10.805,-14.326 -1.944,-7.912 -9.933,-14.325 -17.846,-14.325 -7.912,0 -12.749,6.413 -10.805,14.325 C -15.901,-6.414 -7.911,0 0,0"
             style="fill:#f9de1c;fill-opacity:1;fill-rule:evenodd;stroke:none"
             id="path1076" />
        </g>
        <g
           id="g1078"
           transform="translate(194.5391,278.8682)">
          <path
             d="m 0,0 c 3.883,-4.401 6.241,-10.181 6.241,-16.511 0,-13.788 -11.178,-24.966 -24.967,-24.966 -10.224,0 -19.011,6.146 -22.872,14.946 4.575,-5.185 11.268,-8.457 18.726,-8.457 13.789,0 24.966,11.178 24.966,24.966 C 2.094,-6.457 1.346,-3.067 0,0"
             style="fill:#f39c0f;fill-opacity:1;fill-rule:evenodd;stroke:none"
             id="path1080" />
        </g>
        <g
           id="g1082"
           transform="translate(354.7383,425.4077)">
          <path
             d="m 0,0 c -32.997,0 -59.747,-26.75 -59.747,-59.747 0,-32.998 26.75,-59.749 59.747,-59.749 32.998,0 59.748,26.751 59.748,59.749 C 59.748,-26.75 32.998,0 0,0 m 0,16.569 c 42.149,0 76.316,-34.169 76.316,-76.316 0,-42.149 -34.167,-76.317 -76.316,-76.317 -42.148,0 -76.317,34.168 -76.317,76.317 0,42.147 34.169,76.316 76.317,76.316"
             style="fill:#cc801a;fill-opacity:1;fill-rule:evenodd;stroke:none"
             id="path1084" />
        </g>
        <g
           id="g1086"
           transform="translate(354.7383,430.6191)">
          <path
             d="m 0,0 c 35.874,0 64.959,-29.085 64.959,-64.959 0,-35.874 -29.085,-64.959 -64.959,-64.959 -35.873,0 -64.959,29.085 -64.959,64.959 C -64.959,-29.085 -35.873,0 0,0 m 0,6.146 c -39.271,0 -71.105,-31.833 -71.105,-71.105 0,-39.271 31.834,-71.104 71.105,-71.104 39.272,0 71.104,31.833 71.104,71.104 C 71.104,-25.687 39.272,6.146 0,6.146"
             style="fill:#df8c16;fill-opacity:1;fill-rule:evenodd;stroke:none"
             id="path1088" />
        </g>
      </g>
    </g>
  </g>
</svg>
